<svg xmlns="http://www.w3.org/2000/svg" width="1920" height="1080"><path d="M834,1419L608,1458L1206,1393Z" fill="#3e8862" stroke="#3e8862" stroke-width="1.51"/><path d="M459,-364L868,-356L1466,-378Z" fill="#b2e0d1" stroke="#b2e0d1" stroke-width="1.51"/><path d="M1206,1393L608,1458L1777,1397Z" fill="#2a8050" stroke="#2a8050" stroke-width="1.51"/><path d="M1570,1358L1318,1374L1777,1397Z" fill="#177439" stroke="#177439" stroke-width="1.51"/><path d="M1318,1374L1206,1393L1777,1397Z" fill="#1d7941" stroke="#1d7941" stroke-width="1.51"/><path d="M459,-364L1466,-378L1840,-405Z" fill="#a3d7bb" stroke="#a3d7bb" stroke-width="1.51"/><path d="M1777,1397L608,1458L2113,1426Z" fill="#19733b" stroke="#19733b" stroke-width="1.51"/><path d="M2133,1022L2043,1100L2162,1317Z" fill="#086b2e" stroke="#086b2e" stroke-width="1.51"/><path d="M1840,-405L2059,-368L2187,-405Z" fill="#86b08e" stroke="#86b08e" stroke-width="1.51"/><path d="M1953,-133L1916,106L2207,192Z" fill="#72a984" stroke="#72a984" stroke-width="1.51"/><path d="M2028,457L1965,681L2221,445Z" fill="#3c9165" stroke="#3c9165" stroke-width="1.51"/><path d="M2207,192L2135,386L2221,445Z" fill="#4f926e" stroke="#4f926e" stroke-width="1.51"/><path d="M2162,1317L2113,1426L2295,1065Z" fill="#005e26" stroke="#005e26" stroke-width="1.51"/><path d="M2133,1022L2162,1317L2295,1065Z" fill="#08672c" stroke="#08672c" stroke-width="1.51"/><path d="M2187,-405L2059,-368L2299,-85Z" fill="#7da488" stroke="#7da488" stroke-width="1.51"/><path d="M2059,-368L1953,-133L2299,-85Z" fill="#7ca88a" stroke="#7ca88a" stroke-width="1.51"/><path d="M1953,-133L2207,192L2299,-85Z" fill="#71a182" stroke="#71a182" stroke-width="1.51"/><path d="M2207,192L2221,445L2299,-85Z" fill="#5f9576" stroke="#5f9576" stroke-width="1.51"/><path d="M2097,1014L2133,1022L2303,771Z" fill="#19753b" stroke="#19753b" stroke-width="1.51"/><path d="M1965,681L2097,1014L2303,771Z" fill="#218148" stroke="#218148" stroke-width="1.51"/><path d="M2221,445L1965,681L2303,771Z" fill="#318758" stroke="#318758" stroke-width="1.51"/><path d="M2133,1022L2295,1065L2303,771Z" fill="#167037" stroke="#167037" stroke-width="1.51"/><path d="M2299,-85L2221,445L2303,771Z" fill="#498b69" stroke="#498b69" stroke-width="1.51"/><path d="M1965,681L1898,812L2097,1014Z" fill="#22894b" stroke="#22894b" stroke-width="1.51"/><path d="M2006,334L2135,386L2207,192Z" fill="#559973" stroke="#559973" stroke-width="1.51"/><path d="M2135,386L2028,457L2221,445Z" fill="#47926a" stroke="#47926a" stroke-width="1.51"/><path d="M1916,106L2006,334L2207,192Z" fill="#61a27b" stroke="#61a27b" stroke-width="1.51"/><path d="M2097,1014L2043,1100L2133,1022Z" fill="#117334" stroke="#117334" stroke-width="1.51"/><path d="M1777,1397L2113,1426L2162,1317Z" fill="#005f26" stroke="#005f26" stroke-width="1.51"/><path d="M2043,1100L1777,1397L2162,1317Z" fill="#006a2a" stroke="#006a2a" stroke-width="1.51"/><path d="M1782,1140L1777,1397L2043,1100Z" fill="#0a7432" stroke="#0a7432" stroke-width="1.51"/><path d="M2006,334L2028,457L2135,386Z" fill="#4d996f" stroke="#4d996f" stroke-width="1.51"/><path d="M1466,-378L1640,-353L1840,-405Z" fill="#93c29e" stroke="#93c29e" stroke-width="1.51"/><path d="M1898,812L2043,1100L2097,1014Z" fill="#177c3c" stroke="#177c3c" stroke-width="1.51"/><path d="M1715,929L1782,1140L1898,812Z" fill="#218844" stroke="#218844" stroke-width="1.51"/><path d="M1844,572L1965,681L2028,457Z" fill="#3b9765" stroke="#3b9765" stroke-width="1.51"/><path d="M1898,812L1782,1140L2043,1100Z" fill="#177f3a" stroke="#177f3a" stroke-width="1.51"/><path d="M1840,-405L1953,-133L2059,-368Z" fill="#85b490" stroke="#85b490" stroke-width="1.51"/><path d="M2006,334L1844,572L2028,457Z" fill="#489c6e" stroke="#489c6e" stroke-width="1.51"/><path d="M1916,106L1704,310L2006,334Z" fill="#62a97f" stroke="#62a97f" stroke-width="1.51"/><path d="M1704,310L1844,572L2006,334Z" fill="#51a376" stroke="#51a376" stroke-width="1.51"/><path d="M1840,-405L1640,-353L1953,-133Z" fill="#8aba96" stroke="#8aba96" stroke-width="1.51"/><path d="M1710,3L1916,106L1953,-133Z" fill="#7bb38d" stroke="#7bb38d" stroke-width="1.51"/><path d="M1844,572L1898,812L1965,681Z" fill="#32945c" stroke="#32945c" stroke-width="1.51"/><path d="M1710,107L1704,310L1916,106Z" fill="#6eb087" stroke="#6eb087" stroke-width="1.51"/><path d="M1640,-353L1710,3L1953,-133Z" fill="#86ba96" stroke="#86ba96" stroke-width="1.51"/><path d="M1844,572L1615,666L1898,812Z" fill="#379a60" stroke="#379a60" stroke-width="1.51"/><path d="M1710,3L1710,107L1916,106Z" fill="#79b58d" stroke="#79b58d" stroke-width="1.51"/><path d="M1615,666L1715,929L1898,812Z" fill="#2e9657" stroke="#2e9657" stroke-width="1.51"/><path d="M1640,-353L1616,-7L1710,3Z" fill="#88be99" stroke="#88be99" stroke-width="1.51"/><path d="M1615,666L1651,912L1715,929Z" fill="#2f9757" stroke="#2f9757" stroke-width="1.51"/><path d="M1570,1358L1777,1397L1782,1140Z" fill="#107434" stroke="#107434" stroke-width="1.51"/><path d="M1704,310L1603,564L1844,572Z" fill="#4da575" stroke="#4da575" stroke-width="1.51"/><path d="M1603,564L1615,666L1844,572Z" fill="#41a26c" stroke="#41a26c" stroke-width="1.51"/><path d="M868,-356L1213,-296L1466,-378Z" fill="#a5d8c0" stroke="#a5d8c0" stroke-width="1.51"/><path d="M1715,929L1651,912L1782,1140Z" fill="#228944" stroke="#228944" stroke-width="1.51"/><path d="M1651,912L1493,1219L1782,1140Z" fill="#1f8641" stroke="#1f8641" stroke-width="1.51"/><path d="M1493,1219L1570,1358L1782,1140Z" fill="#177e3b" stroke="#177e3b" stroke-width="1.51"/><path d="M1466,-378L1616,-7L1640,-353Z" fill="#91c5a2" stroke="#91c5a2" stroke-width="1.51"/><path d="M1581,306L1603,564L1704,310Z" fill="#5aae80" stroke="#5aae80" stroke-width="1.51"/><path d="M1581,306L1704,310L1710,107Z" fill="#6ab388" stroke="#6ab388" stroke-width="1.51"/><path d="M1541,36L1581,306L1710,107Z" fill="#76b991" stroke="#76b991" stroke-width="1.51"/><path d="M1710,3L1616,-7L1710,107Z" fill="#7fba93" stroke="#7fba93" stroke-width="1.51"/><path d="M1359,1038L1493,1219L1651,912Z" fill="#278f4c" stroke="#278f4c" stroke-width="1.51"/><path d="M1616,-7L1541,36L1710,107Z" fill="#80bd95" stroke="#80bd95" stroke-width="1.51"/><path d="M-79,-277L100,-287L459,-364Z" fill="#e3f4f4" stroke="#e3f4f4" stroke-width="1.51"/><path d="M1466,-378L1277,-48L1541,36Z" fill="#91cbab" stroke="#91cbab" stroke-width="1.51"/><path d="M1277,-48L1382,43L1541,36Z" fill="#8bc9a8" stroke="#8bc9a8" stroke-width="1.51"/><path d="M1466,-378L1541,36L1616,-7Z" fill="#8cc4a1" stroke="#8cc4a1" stroke-width="1.51"/><path d="M1615,666L1331,694L1651,912Z" fill="#39a367" stroke="#39a367" stroke-width="1.51"/><path d="M1331,694L1359,1038L1651,912Z" fill="#359e60" stroke="#359e60" stroke-width="1.51"/><path d="M1581,306L1322,567L1603,564Z" fill="#55b082" stroke="#55b082" stroke-width="1.51"/><path d="M1541,36L1382,43L1581,306Z" fill="#7dc09a" stroke="#7dc09a" stroke-width="1.51"/><path d="M1382,43L1323,296L1581,306Z" fill="#76c19b" stroke="#76c19b" stroke-width="1.51"/><path d="M1323,296L1322,567L1581,306Z" fill="#62b990" stroke="#62b990" stroke-width="1.51"/><path d="M1603,564L1331,694L1615,666Z" fill="#44a873" stroke="#44a873" stroke-width="1.51"/><path d="M1322,567L1331,694L1603,564Z" fill="#4baf7e" stroke="#4baf7e" stroke-width="1.51"/><path d="M1213,-296L1277,-48L1466,-378Z" fill="#9bd2b5" stroke="#9bd2b5" stroke-width="1.51"/><path d="M1493,1219L1373,1266L1570,1358Z" fill="#1d8143" stroke="#1d8143" stroke-width="1.51"/><path d="M1373,1266L1318,1374L1570,1358Z" fill="#1f7f45" stroke="#1f7f45" stroke-width="1.51"/><path d="M1331,694L1210,914L1359,1038Z" fill="#3ba66b" stroke="#3ba66b" stroke-width="1.51"/><path d="M1359,1038L1373,1266L1493,1219Z" fill="#258c4d" stroke="#258c4d" stroke-width="1.51"/><path d="M1096,61L1062,140L1323,296Z" fill="#87cdb1" stroke="#87cdb1" stroke-width="1.51"/><path d="M1156,426L1322,567L1323,296Z" fill="#64be98" stroke="#64be98" stroke-width="1.51"/><path d="M1359,1038L1225,1103L1373,1266Z" fill="#2c9355" stroke="#2c9355" stroke-width="1.51"/><path d="M1096,61L1323,296L1382,43Z" fill="#85cbac" stroke="#85cbac" stroke-width="1.51"/><path d="M1260,-33L1096,61L1382,43Z" fill="#90d0b2" stroke="#90d0b2" stroke-width="1.51"/><path d="M1277,-48L1260,-33L1382,43Z" fill="#90ceaf" stroke="#90ceaf" stroke-width="1.51"/><path d="M1206,1393L1318,1374L1373,1266Z" fill="#24844c" stroke="#24844c" stroke-width="1.51"/><path d="M1225,1103L1206,1393L1373,1266Z" fill="#298d52" stroke="#298d52" stroke-width="1.51"/><path d="M1085,767L1210,914L1331,694Z" fill="#46af7a" stroke="#46af7a" stroke-width="1.51"/><path d="M1210,914L1225,1103L1359,1038Z" fill="#359d5f" stroke="#359d5f" stroke-width="1.51"/><path d="M1322,567L1070,566L1331,694Z" fill="#52b78a" stroke="#52b78a" stroke-width="1.51"/><path d="M1070,566L1085,767L1331,694Z" fill="#52b689" stroke="#52b689" stroke-width="1.51"/><path d="M930,1358L834,1419L1206,1393Z" fill="#37885e" stroke="#37885e" stroke-width="1.51"/><path d="M1156,426L1070,566L1322,567Z" fill="#5dbd96" stroke="#5dbd96" stroke-width="1.51"/><path d="M1062,140L1156,426L1323,296Z" fill="#78c7a8" stroke="#78c7a8" stroke-width="1.51"/><path d="M1213,-296L1260,-33L1277,-48Z" fill="#98d2b8" stroke="#98d2b8" stroke-width="1.51"/><path d="M1024,1077L1206,1393L1225,1103Z" fill="#33955d" stroke="#33955d" stroke-width="1.51"/><path d="M1213,-296L1014,-36L1260,-33Z" fill="#9cd5be" stroke="#9cd5be" stroke-width="1.51"/><path d="M1062,140L1001,371L1156,426Z" fill="#7ac9ae" stroke="#7ac9ae" stroke-width="1.51"/><path d="M1024,1077L930,1358L1206,1393Z" fill="#36925f" stroke="#36925f" stroke-width="1.51"/><path d="M1210,914L1024,1077L1225,1103Z" fill="#3ca066" stroke="#3ca066" stroke-width="1.51"/><path d="M1014,-36L1096,61L1260,-33Z" fill="#97d4bc" stroke="#97d4bc" stroke-width="1.51"/><path d="M934,950L1024,1077L1210,914Z" fill="#44a671" stroke="#44a671" stroke-width="1.51"/><path d="M868,-356L1014,-36L1213,-296Z" fill="#a7dbc9" stroke="#a7dbc9" stroke-width="1.51"/><path d="M1085,767L934,950L1210,914Z" fill="#49ad7a" stroke="#49ad7a" stroke-width="1.51"/><path d="M966,501L1070,566L1156,426Z" fill="#66c1a0" stroke="#66c1a0" stroke-width="1.51"/><path d="M1001,371L966,501L1156,426Z" fill="#6ec5a7" stroke="#6ec5a7" stroke-width="1.51"/><path d="M868,-356L799,-174L1014,-36Z" fill="#added1" stroke="#added1" stroke-width="1.51"/><path d="M927,755L934,950L1085,767Z" fill="#51b486" stroke="#51b486" stroke-width="1.51"/><path d="M1070,566L927,755L1085,767Z" fill="#57ba90" stroke="#57ba90" stroke-width="1.51"/><path d="M1014,-36L1062,140L1096,61Z" fill="#97d4be" stroke="#97d4be" stroke-width="1.51"/><path d="M807,302L1001,371L1062,140Z" fill="#84cfb8" stroke="#84cfb8" stroke-width="1.51"/><path d="M966,501L927,755L1070,566Z" fill="#60be9b" stroke="#60be9b" stroke-width="1.51"/><path d="M714,1178L930,1358L1024,1077Z" fill="#459c6d" stroke="#459c6d" stroke-width="1.51"/><path d="M1014,-36L737,27L1062,140Z" fill="#9ed8c7" stroke="#9ed8c7" stroke-width="1.51"/><path d="M737,27L807,302L1062,140Z" fill="#97d7c4" stroke="#97d7c4" stroke-width="1.51"/><path d="M787,597L927,755L966,501Z" fill="#66c1a0" stroke="#66c1a0" stroke-width="1.51"/><path d="M934,950L714,1178L1024,1077Z" fill="#4ba574" stroke="#4ba574" stroke-width="1.51"/><path d="M799,-174L737,27L1014,-36Z" fill="#aaddd0" stroke="#aaddd0" stroke-width="1.51"/><path d="M807,302L966,501L1001,371Z" fill="#7acab1" stroke="#7acab1" stroke-width="1.51"/><path d="M773,-269L799,-174L868,-356Z" fill="#b6e2d7" stroke="#b6e2d7" stroke-width="1.51"/><path d="M787,597L827,754L927,755Z" fill="#64bf9a" stroke="#64bf9a" stroke-width="1.51"/><path d="M927,755L827,754L934,950Z" fill="#58b68c" stroke="#58b68c" stroke-width="1.51"/><path d="M827,754L755,933L934,950Z" fill="#59b488" stroke="#59b488" stroke-width="1.51"/><path d="M755,933L714,1178L934,950Z" fill="#55ab7b" stroke="#55ab7b" stroke-width="1.51"/><path d="M807,302L787,597L966,501Z" fill="#77c9af" stroke="#77c9af" stroke-width="1.51"/><path d="M714,1178L834,1419L930,1358Z" fill="#46956a" stroke="#46956a" stroke-width="1.51"/><path d="M604,452L787,597L807,302Z" fill="#82ceb7" stroke="#82ceb7" stroke-width="1.51"/><path d="M459,-364L773,-269L868,-356Z" fill="#c0e7de" stroke="#c0e7de" stroke-width="1.51"/><path d="M737,27L459,191L807,302Z" fill="#a4dcce" stroke="#a4dcce" stroke-width="1.51"/><path d="M714,1178L608,1458L834,1419Z" fill="#4d956e" stroke="#4d956e" stroke-width="1.51"/><path d="M597,-105L737,27L799,-174Z" fill="#b5e2d8" stroke="#b5e2d8" stroke-width="1.51"/><path d="M787,597L532,840L827,754Z" fill="#6cc29e" stroke="#6cc29e" stroke-width="1.51"/><path d="M532,840L755,933L827,754Z" fill="#66bb93" stroke="#66bb93" stroke-width="1.51"/><path d="M446,280L604,452L807,302Z" fill="#95d6c6" stroke="#95d6c6" stroke-width="1.51"/><path d="M459,191L446,280L807,302Z" fill="#a2dcce" stroke="#a2dcce" stroke-width="1.51"/><path d="M773,-269L597,-105L799,-174Z" fill="#b9e3db" stroke="#b9e3db" stroke-width="1.51"/><path d="M492,1093L714,1178L755,933Z" fill="#5ead80" stroke="#5ead80" stroke-width="1.51"/><path d="M604,452L532,840L787,597Z" fill="#79c9ac" stroke="#79c9ac" stroke-width="1.51"/><path d="M459,-364L597,-105L773,-269Z" fill="#c3e8e2" stroke="#c3e8e2" stroke-width="1.51"/><path d="M416,1300L608,1458L714,1178Z" fill="#599c76" stroke="#599c76" stroke-width="1.51"/><path d="M532,840L492,1093L755,933Z" fill="#68b68d" stroke="#68b68d" stroke-width="1.51"/><path d="M359,568L532,840L604,452Z" fill="#84cdb3" stroke="#84cdb3" stroke-width="1.51"/><path d="M597,-105L459,191L737,27Z" fill="#b6e3d9" stroke="#b6e3d9" stroke-width="1.51"/><path d="M492,1093L416,1300L714,1178Z" fill="#61a87e" stroke="#61a87e" stroke-width="1.51"/><path d="M50,1296L-85,1401L416,1300Z" fill="#74a585" stroke="#74a585" stroke-width="1.51"/><path d="M485,858L381,1013L492,1093Z" fill="#72b88f" stroke="#72b88f" stroke-width="1.51"/><path d="M359,568L485,858L532,840Z" fill="#7ec9a8" stroke="#7ec9a8" stroke-width="1.51"/><path d="M485,858L492,1093L532,840Z" fill="#71bb93" stroke="#71bb93" stroke-width="1.51"/><path d="M430,-100L459,191L597,-105Z" fill="#c0e7df" stroke="#c0e7df" stroke-width="1.51"/><path d="M459,-364L430,-100L597,-105Z" fill="#caebe6" stroke="#caebe6" stroke-width="1.51"/><path d="M427,426L359,568L604,452Z" fill="#93d4c1" stroke="#93d4c1" stroke-width="1.51"/><path d="M446,280L427,426L604,452Z" fill="#9ad8c8" stroke="#9ad8c8" stroke-width="1.51"/><path d="M416,1300L-85,1401L608,1458Z" fill="#6a9d7d" stroke="#6a9d7d" stroke-width="1.51"/><path d="M323,-221L430,-100L459,-364Z" fill="#d2eeea" stroke="#d2eeea" stroke-width="1.51"/><path d="M430,-100L296,78L459,191Z" fill="#c4e9e1" stroke="#c4e9e1" stroke-width="1.51"/><path d="M359,568L273,699L485,858Z" fill="#89cdb0" stroke="#89cdb0" stroke-width="1.51"/><path d="M254,1161L416,1300L492,1093Z" fill="#6dad85" stroke="#6dad85" stroke-width="1.51"/><path d="M381,1013L254,1161L492,1093Z" fill="#73b38b" stroke="#73b38b" stroke-width="1.51"/><path d="M273,699L381,1013L485,858Z" fill="#7fc4a0" stroke="#7fc4a0" stroke-width="1.51"/><path d="M100,-287L323,-221L459,-364Z" fill="#dcf2f0" stroke="#dcf2f0" stroke-width="1.51"/><path d="M296,78L446,280L459,191Z" fill="#b7e4d9" stroke="#b7e4d9" stroke-width="1.51"/><path d="M183,390L427,426L446,280Z" fill="#a7ddcf" stroke="#a7ddcf" stroke-width="1.51"/><path d="M296,78L183,390L446,280Z" fill="#b6e4d9" stroke="#b6e4d9" stroke-width="1.51"/><path d="M273,699L222,1060L381,1013Z" fill="#82c29c" stroke="#82c29c" stroke-width="1.51"/><path d="M323,-221L296,78L430,-100Z" fill="#cfede9" stroke="#cfede9" stroke-width="1.51"/><path d="M183,390L359,568L427,426Z" fill="#9fd9c9" stroke="#9fd9c9" stroke-width="1.51"/><path d="M215,69L296,78L323,-221Z" fill="#d1eee9" stroke="#d1eee9" stroke-width="1.51"/><path d="M254,1161L50,1296L416,1300Z" fill="#74ab86" stroke="#74ab86" stroke-width="1.51"/><path d="M215,69L183,390L296,78Z" fill="#c2e8e0" stroke="#c2e8e0" stroke-width="1.51"/><path d="M183,390L152,441L359,568Z" fill="#a4dbcc" stroke="#a4dbcc" stroke-width="1.51"/><path d="M222,1060L254,1161L381,1013Z" fill="#7ab78f" stroke="#7ab78f" stroke-width="1.51"/><path d="M80,-190L215,69L323,-221Z" fill="#d8f1ef" stroke="#d8f1ef" stroke-width="1.51"/><path d="M152,441L273,699L359,568Z" fill="#9ad6c2" stroke="#9ad6c2" stroke-width="1.51"/><path d="M-23,730L202,1069L222,1060Z" fill="#87c29d" stroke="#87c29d" stroke-width="1.51"/><path d="M-23,730L222,1060L273,699Z" fill="#8dcbaa" stroke="#8dcbaa" stroke-width="1.51"/><path d="M100,-287L80,-190L323,-221Z" fill="#dff3f3" stroke="#dff3f3" stroke-width="1.51"/><path d="M152,441L24,656L273,699Z" fill="#9cd6c2" stroke="#9cd6c2" stroke-width="1.51"/><path d="M-23,730L-81,1028L202,1069Z" fill="#8bc4a1" stroke="#8bc4a1" stroke-width="1.51"/><path d="M-103,241L183,390L215,69Z" fill="#c1e8e1" stroke="#c1e8e1" stroke-width="1.51"/><path d="M222,1060L202,1069L254,1161Z" fill="#7cb68f" stroke="#7cb68f" stroke-width="1.51"/><path d="M24,656L-23,730L273,699Z" fill="#98d3ba" stroke="#98d3ba" stroke-width="1.51"/><path d="M202,1069L50,1296L254,1161Z" fill="#7ab28c" stroke="#7ab28c" stroke-width="1.51"/><path d="M-16,1234L50,1296L202,1069Z" fill="#7db18d" stroke="#7db18d" stroke-width="1.51"/><path d="M80,-190L-63,-162L215,69Z" fill="#dcf2f2" stroke="#dcf2f2" stroke-width="1.51"/><path d="M-63,-162L-157,27L215,69Z" fill="#dbf1f1" stroke="#dbf1f1" stroke-width="1.51"/><path d="M-157,27L-103,241L215,69Z" fill="#d2eeeb" stroke="#d2eeeb" stroke-width="1.51"/><path d="M-22,611L24,656L152,441Z" fill="#a2d9c8" stroke="#a2d9c8" stroke-width="1.51"/><path d="M-81,1028L-16,1234L202,1069Z" fill="#82b793" stroke="#82b793" stroke-width="1.51"/><path d="M-103,241L152,441L183,390Z" fill="#b5e2d9" stroke="#b5e2d9" stroke-width="1.51"/><path d="M-103,241L-22,611L152,441Z" fill="#b0e0d5" stroke="#b0e0d5" stroke-width="1.51"/><path d="M-79,-277L80,-190L100,-287Z" fill="#e5f5f7" stroke="#e5f5f7" stroke-width="1.51"/><path d="M-79,-277L-63,-162L80,-190Z" fill="#e5f5f8" stroke="#e5f5f8" stroke-width="1.51"/><path d="M-16,1234L-85,1401L50,1296Z" fill="#7ba989" stroke="#7ba989" stroke-width="1.51"/><path d="M-103,241L-350,591L-22,611Z" fill="#b0e0d3" stroke="#b0e0d3" stroke-width="1.51"/><path d="M-22,611L-23,730L24,656Z" fill="#9dd6bf" stroke="#9dd6bf" stroke-width="1.51"/><path d="M-339,252L-350,591L-103,241Z" fill="#bfe6dd" stroke="#bfe6dd" stroke-width="1.51"/><path d="M-157,27L-214,88L-103,241Z" fill="#d6f0ed" stroke="#d6f0ed" stroke-width="1.51"/><path d="M-313,1028L-81,1028L-23,730Z" fill="#92c7a5" stroke="#92c7a5" stroke-width="1.51"/><path d="M-340,663L-313,1028L-23,730Z" fill="#9bd1b4" stroke="#9bd1b4" stroke-width="1.51"/><path d="M-340,663L-23,730L-22,611Z" fill="#a1d7c1" stroke="#a1d7c1" stroke-width="1.51"/><path d="M-81,1028L-233,1134L-16,1234Z" fill="#86b895" stroke="#86b895" stroke-width="1.51"/><path d="M-233,1134L-85,1401L-16,1234Z" fill="#80b08e" stroke="#80b08e" stroke-width="1.51"/><path d="M-350,591L-340,663L-22,611Z" fill="#a7dac6" stroke="#a7dac6" stroke-width="1.51"/><path d="M-233,1134L-326,1334L-85,1401Z" fill="#81ae8d" stroke="#81ae8d" stroke-width="1.51"/><path d="M-79,-277L-318,-217L-63,-162Z" fill="#eaf6fa" stroke="#eaf6fa" stroke-width="1.51"/><path d="M-318,-217L-157,27L-63,-162Z" fill="#e6f5f7" stroke="#e6f5f7" stroke-width="1.51"/><path d="M-318,-217L-351,-46L-157,27Z" fill="#e6f6f6" stroke="#e6f6f6" stroke-width="1.51"/><path d="M-313,1028L-233,1134L-81,1028Z" fill="#8cbe9a" stroke="#8cbe9a" stroke-width="1.51"/><path d="M-214,88L-339,252L-103,241Z" fill="#cfede8" stroke="#cfede8" stroke-width="1.51"/><path d="M-351,-46L-214,88L-157,27Z" fill="#e0f4f2" stroke="#e0f4f2" stroke-width="1.51"/><path d="M-351,-46L-339,252L-214,88Z" fill="#dcf2ef" stroke="#dcf2ef" stroke-width="1.51"/><path d="M-313,1028L-326,1334L-233,1134Z" fill="#89b894" stroke="#89b894" stroke-width="1.51"/><path d="M-340,663L-326,1334L-313,1028Z" fill="#92c39e" stroke="#92c39e" stroke-width="1.51"/><path d="M-340,663L-350,591L-326,1334Z" fill="#9bceae" stroke="#9bceae" stroke-width="1.51"/><path d="M-351,-46L-350,591L-339,252Z" fill="#cbebe5" stroke="#cbebe5" stroke-width="1.51"/></svg>